<?xml version="1.0" standalone="no"?><!DOCTYPE svg PUBLIC "-//W3C//DTD SVG 1.1//EN" "http://www.w3.org/Graphics/SVG/1.1/DTD/svg11.dtd"><svg t="1623567660871" class="icon" viewBox="0 0 1024 1024" version="1.1" xmlns="http://www.w3.org/2000/svg" p-id="20526" width="500" height="500" xmlns:xlink="http://www.w3.org/1999/xlink"><defs><style type="text/css"></style></defs><path d="M0.017067 376.393387c93.610667-30.303573 125.108907-159.96416 191.55968-168.087894 86.23616-10.371413 137.66656 86.265173 195.085653 69.203627C448.042667 259.449173 482.126507 83.2 570.05056 83.2c66.397867 0 124.2368 226.64704 183.932587 226.64704 59.78112 0 112.052907-175.156907 168.4224-178.234027 50.435413-2.737493 73.05728 31.399253 101.609813 93.334187v284.315307h-1024v-132.86912z" fill="#293C54" p-id="20527"></path><path d="M1024.017067 752.136533c-47.402667 79.598933-103.891627 171.58144-170.33728 179.65056-86.25152 10.453333-168.23808-159.515307-243.401387-163.498666-58.22976-3.162453-118.807893 113.81248-208.039253 98.691413-142.59712-24.152747-125.047467-190.327467-250.494294-213.507413-70.074027-12.890453-99.007147-18.117973-151.72608-16.206507v-121.941333h1024v236.811946z" fill="#CDCECD" p-id="20528"></path><path d="M206.969173 359.35744c86.401707-10.477227 137.791147 130.986667 195.833174 136.999253 58.033493 6.058667 137.296213-130.614613 205.74208-133.986986 43.10528-2.107733 90.630827 80.370347 150.326613 80.370346 59.79136 0 69.736107-101.7088 140.086613-101.789013 55.06048 0 101.787307 76.86656 125.057707 145.31072v159.163733c-39.908693-38.280533-87.43936-69.53472-124.020053-47.346346-46.317227 28.086613-70.693547 119.83872-130.464427 119.83872-59.723093 0-115.449173-131.662507-203.569493-139.031894-64.65536-5.31968-104.192 69.7088-160.923307 92.654934-74.68032 30.2592-104.429227-130.418347-190.825813-140.960427-66.326187-8.070827-124.72832 34.297173-214.196907 33.1264V456.057173c100.293973 0.744107 140.67712-88.576 206.953813-96.699733z" fill="#C13531" p-id="20529"></path></svg>